<?xml version="1.0" standalone="no"?>
<!DOCTYPE svg PUBLIC "-//W3C//DTD SVG 20010904//EN"
 "http://www.w3.org/TR/2001/REC-SVG-20010904/DTD/svg10.dtd">
<svg version="1.0" xmlns="http://www.w3.org/2000/svg"
 width="900.000000pt" height="593.000000pt" viewBox="0 0 900.000000 593.000000"
 preserveAspectRatio="xMidYMid meet">

<g transform="translate(0.000000,593.000000) scale(0.100000,-0.100000)"
fill="#000000" stroke="none">
<path d="M4270 5506 c-537 -78 -923 -395 -1089 -894 -73 -221 -94 -406 -89
-817 l3 -300 33 -67 c39 -80 113 -150 183 -175 42 -15 49 -22 49 -44 0 -15 7
-66 15 -115 59 -345 270 -645 568 -809 61 -34 67 -40 67 -69 0 -92 -66 -218
-143 -273 -69 -50 -114 -64 -241 -74 -226 -17 -371 -72 -535 -202 -128 -102
-246 -288 -293 -462 -19 -72 -22 -112 -26 -412 l-4 -333 30 -30 c49 -49 112
-37 138 25 11 27 14 98 14 333 0 264 2 308 20 376 57 224 227 410 447 489 78
28 111 34 243 42 141 9 252 52 339 131 l37 33 97 -47 96 -47 1 -41 c0 -50 -40
-133 -79 -161 -43 -32 -115 -51 -221 -58 -446 -29 -769 -360 -770 -790 0 -118
-20 -173 -72 -205 l-33 -20 1497 0 1498 0 14 -34 c25 -60 84 -74 133 -32 l28
24 -1 339 c0 315 -2 343 -22 418 -29 107 -99 247 -168 335 -155 197 -425 330
-676 330 -76 0 -166 30 -228 75 -27 20 -50 40 -50 44 0 4 -17 26 -38 49 -45
48 -83 55 -125 22 -32 -26 -42 -64 -24 -99 14 -28 14 -29 -37 -59 -90 -54
-104 -57 -135 -23 l-28 30 -139 -6 c-161 -7 -223 5 -342 63 -64 31 -73 39 -68
58 3 11 13 52 22 89 15 62 19 68 38 63 171 -47 423 -47 586 -2 196 55 371 157
515 301 201 201 317 456 332 733 l6 113 41 21 c54 26 93 64 117 111 14 26 26
37 42 37 28 0 65 32 72 63 2 12 6 180 8 372 3 332 4 353 25 409 28 74 59 128
111 191 56 68 55 99 -6 190 -127 192 -363 367 -589 437 -58 18 -73 26 -68 38
27 60 8 107 -54 139 -129 65 -362 136 -542 166 -132 22 -411 28 -530 11z m839
-1117 c170 -27 302 -148 346 -314 22 -85 22 -832 0 -958 -65 -376 -344 -680
-715 -779 -123 -33 -357 -33 -480 0 -377 103 -648 399 -715 781 -22 124 -22
872 0 956 43 162 177 287 337 314 77 13 1149 13 1227 0z"/>
</g>
</svg>
